<svg width="54" height="64" viewBox="0 0 54 64" fill="none" xmlns="http://www.w3.org/2000/svg">
<path d="M15 2H40C46.6274 2 52 7.37258 52 14V54" stroke="black" stroke-width="4" stroke-linecap="round"/>
<path fill-rule="evenodd" clip-rule="evenodd" d="M0.5 15.5C0.5 11.634 3.63401 8.5 7.5 8.5H34.5C40.5751 8.5 45.5 13.4249 45.5 19.5V57.5C45.5 60.8137 42.8137 63.5 39.5 63.5H8.5C4.08172 63.5 0.5 59.9183 0.5 55.5V15.5ZM10.5 36V32.5H23H35.5V36H10.5ZM35.5 43.5V40.5H23H10.5V43.5H35.5ZM35.5 47.5H10.5V51.5H35.5V47.5ZM35.5 11.5V16.5C35.5 17.6046 36.3954 18.5 37.5 18.5H42.5L42.2984 17.8279C41.4814 15.1046 39.4256 12.9275 36.7536 11.9559L35.5 11.5Z" fill="black" stroke="black" stroke-linecap="round"/>
</svg>
